#!OML:ASF F:\VICON\USERDATA\INSTALL\rory3\rory3.ASF
:FULLY-SPECIFIED
:DEGREES
918
root 3.02871 16.7446 0.0588039 15.9215 4.97472 10.8185
lowerback -6.84988 2.00482 1.18148
upperback -2.08607 2.78988 -7.25123
thorax 2.10227 1.42272 -8.03896
lowerneck -2.12976 14.3957 5.65239
upperneck 47.5319 24.0977 -2.07026
head 20.159 10.5929 2.09735
rclavicle -5.1038e-014 2.8625e-014
rhumerus -36.6682 3.38738 -92.9508
rradius 42.7096
rwrist -38.2932
rhand -9.18488 -50.3255
rfingers 7.12502
rthumb 16.7685 -79.6214
lclavicle -5.1038e-014 2.8625e-014
lhumerus -27.3729 -20.8712 82.1902
lradius 41.311
lwrist 73.9276
lhand -38.3475 -13.9519
lfingers 7.12502
lthumb -11.3745 15.7196
rfemur -50.8829 23.8916 -6.57435
rtibia 73.7018
rfoot 3.3337 10.0602
rtoes -42.2481
lfemur -32.5083 -7.36951 -36.1607
ltibia 38.4186
lfoot -17.2213 10.9634
ltoes 6.30723
919
root 3.03223 16.749 0.057316 15.93 4.97837 10.8416
lowerback -6.81 2.01824 1.19238
upperback -2.14067 2.80357 -7.26323
thorax 2.02627 1.42699 -8.05885
lowerneck -2.03867 14.362 5.65504
upperneck 47.5452 24.0374 -2.04933
head 20.1345 10.5787 2.08474
rclavicle 2.77305e-014 1.35174e-014
rhumerus -36.7731 3.33619 -92.9274
rradius 42.7117
rwrist -38.3232
rhand -6.28287 -53.2761
rfingers 7.12502
rthumb 19.5604 -82.3121
lclavicle 2.77305e-014 1.35174e-014
lhumerus -27.4501 -20.9673 82.2401
lradius 41.3165
lwrist 73.9593
lhand -38.4967 -14.0041
lfingers 7.12502
lthumb -11.5183 15.6595
rfemur -50.8495 23.8194 -6.60367
rtibia 73.6533
rfoot 3.44035 10.0419
rtoes -41.9563
lfemur -32.5052 -7.39623 -36.1829
ltibia 38.366
lfoot -17.2306 10.8314
ltoes 7.45626
920
root 3.03171 16.7478 0.0597789 15.9562 4.95129 10.8397
lowerback -6.73131 2.01133 1.14282
upperback -2.25695 2.78807 -7.23695
thorax 1.85526 1.41263 -8.00633
lowerneck -1.83845 14.3645 5.7057
upperneck 47.4967 24.0757 -2.15133
head 20.0887 10.6058 2.01479
rclavicle 4.12478e-014 1.78906e-014
rhumerus -36.9654 3.38003 -92.9219
rradius 42.7327
rwrist -38.3686
rhand -9.27436 -50.2341
rfingers 7.12502
rthumb 16.6823 -79.5372
lclavicle 4.12478e-014 1.78906e-014
lhumerus -27.6534 -20.8679 82.2951
lradius 41.3706
lwrist 73.9569
lhand -38.4158 -13.7729
lfingers 7.12502
lthumb -11.4403 15.8949
rfemur -50.8575 23.8299 -6.59477
rtibia 73.6465
rfoot 3.24606 10.0643
rtoes -42.3275
lfemur -32.5014 -7.3095 -36.2165
ltibia 38.3414
lfoot -17.1526 10.9189
ltoes 6.46132
921
root 3.03018 16.7441 0.0626944 15.9736 4.95834 10.8479
lowerback -6.72952 1.97943 1.09796
upperback -2.30134 2.74476 -7.21247
thorax 1.79835 1.3883 -7.95819
lowerneck -1.82244 14.4022 5.65492
upperneck 47.4587 24.1585 -2.19436
head 20.0656 10.6285 2.01261
rclavicle 2.13197e-014 2.70347e-014
rhumerus -37.0617 3.58235 -93.011
rradius 42.714
rwrist -38.7214
rhand -6.95578 -52.7642
rfingers 7.12502
rthumb 18.9133 -81.8647
lclavicle 2.13197e-014 2.70347e-014
lhumerus -27.7678 -20.7026 82.307
lradius 41.4223
lwrist 73.913
lhand -38.3949 -13.4999
lfingers 7.12502
lthumb -11.4201 16.169
rfemur -50.8738 23.8346 -6.59337
rtibia 73.6752
rfoot 3.17297 10.0737
rtoes -42.4239
lfemur -32.4725 -7.29507 -36.2372
ltibia 38.3394
lfoot -17.1689 11.0191
ltoes 5.52582
922
root 3.02932 16.7418 0.0590347 15.9814 4.89423 10.7967
lowerback -6.68283 1.99677 1.13546
upperback -2.34925 2.76133 -7.20122
thorax 1.72602 1.39409 -7.96824
lowerneck -1.81534 14.4234 5.63142
upperneck 47.4969 24.1818 -2.14189
head 20.074 10.6387 2.04445
rclavicle -2.1419e-014 2.98177e-014
rhumerus -37.1446 3.72636 -93.1041
rradius 42.6897
rwrist -39.0565
rhand -7.60246 -52.1595
rfingers 7.12502
rthumb 18.2913 -81.3195
lclavicle -2.1419e-014 2.98177e-014
lhumerus -27.8035 -20.63 82.3148
lradius 41.4023
lwrist 73.8327
lhand -38.566 -13.2511
lfingers 7.12502
lthumb -11.5852 16.4086
rfemur -51.0086 23.8863 -6.60345
rtibia 73.7043
rfoot 3.37486 10.0113
rtoes -41.7583
lfemur -32.5166 -7.27965 -36.177
ltibia 38.3338
lfoot -17.1917 11.0495
ltoes 5.6604
923
root 3.02695 16.7402 0.0565201 15.9705 4.77943 10.7446
lowerback -6.60934 2.04452 1.12931
upperback -2.40208 2.82079 -7.19791
thorax 1.63838 1.42111 -7.95832
lowerneck -1.73185 14.4162 5.73294
upperneck 47.5675 24.1655 -2.12296
head 20.1179 10.6512 2.03458
rclavicle -1.02871e-014 5.725e-014
rhumerus -37.167 3.61449 -93.0546
rradius 42.6988
rwrist -38.726
rhand -7.06483 -52.7114
rfingers 7.12502
rthumb 18.8085 -81.8221
lclavicle -1.02871e-014 5.725e-014
lhumerus -27.8317 -20.637 82.3227
lradius 41.3672
lwrist 73.7639
lhand -38.6458 -13.0101
lfingers 7.12502
lthumb -11.6621 16.6453
rfemur -51.1231 23.9969 -6.61047
rtibia 73.7151
rfoot 3.42843 9.97463
rtoes -41.4155
lfemur -32.5671 -7.19694 -36.1252
ltibia 38.3317
lfoot -17.1509 11.0823
ltoes 5.62044
